<svg width="120" height="33" viewBox="0 0 120 33" fill="none" xmlns="http://www.w3.org/2000/svg">
<path d="M120 26.3333V29.6667H119.5V32.5H116V33H112V32.5H104V33H100V32.5H92V33H88V32.5H80V33H76V32.5H68V33H64V32.5H56V33H52V32.5H44V33H40V32.5H32V33H28V32.5H20V33H16V32.5H8V33H4V32.5H0.5V29.6667H0V26.3333H0.5V19.6667H0V16.3333H0.5V9.66667H0V6.33333H0.5V3C0.5 2.54373 0.621776 2.11742 0.834265 1.75016L0.401485 1.49976C0.664893 1.0445 1.0445 0.664892 1.49976 0.401485L1.75016 0.834265C2.11742 0.621775 2.54373 0.5 3 0.5H6.8V0H10.6V0.5H18.2V0H22V0.5H29.6V0H33.4V0.5H41V0H44.8V0.5H52.4V0H56.2V0.5H63.8V0H67.6V0.5H75.2V0H79V0.5H86.6V0H90.4V0.5H98V0H101.8V0.5H109.4V0H113.2V0.5H117C117.456 0.5 117.883 0.621776 118.25 0.834265L118.5 0.401486C118.955 0.664893 119.335 1.04451 119.599 1.49976L119.166 1.75016C119.378 2.11742 119.5 2.54373 119.5 3V6.33333H120V9.66667H119.5V16.3333H120V19.6667H119.5V26.3333H120Z" stroke="#FDDDB9" stroke-linejoin="round" stroke-dasharray="8 4"/>
</svg>
