<svg width="150" height="182" viewBox="0 0 150 182" fill="none" xmlns="http://www.w3.org/2000/svg">
<path d="M12.4222 8.08889L12.7111 4.04444L13.2098 4.08007L13.4656 0.5H17V0H21V0.5H29V0H33V0.5H41V0H45V0.5H53V0H57V0.5H65V0H69V0.5H77V0H81V0.5H89V0H93V0.5H101V0H105V0.5H113V0H117V0.5H125V0H129V0.5H132.545L132.88 4.09091L133.378 4.04441L133.756 8.08886L133.258 8.13536L134.013 16.2242L134.511 16.1777L134.889 20.2222L134.391 20.2687L135.147 28.3576L135.644 28.3111L136.022 32.3555L135.524 32.402L136.28 40.4909L136.778 40.4444L137.156 44.4889L136.658 44.5354L137.413 52.6243L137.911 52.5778L138.289 56.6222L137.791 56.6687L138.547 64.7576L139.044 64.7111L139.422 68.7556L138.924 68.8021L139.68 76.8909L140.178 76.8444L140.556 80.8889L140.058 80.9354L140.813 89.0243L141.311 88.9778L141.689 93.0222L141.191 93.0687L141.947 101.158L142.444 101.111L142.822 105.156L142.324 105.202L143.08 113.291L143.578 113.244L143.956 117.289L143.458 117.335L144.213 125.424L144.711 125.378L145.089 129.422L144.591 129.469L145.347 137.558L145.844 137.511L146.222 141.556L145.724 141.602L146.48 149.691L146.978 149.644L147.356 153.689L146.858 153.735L147.613 161.824L148.111 161.778L148.489 165.822L147.991 165.869L148.747 173.958L149.244 173.911L149.622 177.956L149.124 178.002L149.451 181.5H146.154V182H142.308V181.5H134.615V182H130.769V181.5H123.077V182H119.231V181.5H111.538V182H107.692V181.5H100V182H96.1538V181.5H88.4615V182H84.6154V181.5H76.9231V182H73.0769V181.5H65.3846V182H61.5385V181.5H53.8461V182H50V181.5H42.3077V182H38.4615V181.5H30.7692V182H26.9231V181.5H19.2308V182H15.3846V181.5H7.69231V182H3.84615V181.5H0.536989L0.787618 177.991L0.288889 177.956L0.577778 173.911L1.07651 173.947L1.65428 165.858L1.15556 165.822L1.44444 161.778L1.94317 161.813L2.52095 153.725L2.02222 153.689L2.31111 149.644L2.80984 149.68L3.38762 141.591L2.88889 141.556L3.17778 137.511L3.67651 137.547L4.25428 129.458L3.75556 129.422L4.04445 125.378L4.54317 125.413L5.12095 117.325L4.62222 117.289L4.91111 113.244L5.40984 113.28L5.98762 105.191L5.48889 105.156L5.77778 101.111L6.27651 101.147L6.85429 93.0578L6.35556 93.0222L6.64444 88.9778L7.14317 89.0134L7.72095 80.9245L7.22222 80.8889L7.51111 76.8444L8.00984 76.8801L8.58762 68.7912L8.08889 68.7556L8.37778 64.7111L8.87651 64.7467L9.45429 56.6578L8.95556 56.6222L9.24444 52.5778L9.74317 52.6134L10.321 44.5245L9.82222 44.4889L10.1111 40.4444L10.6098 40.4801L11.1876 32.3912L10.6889 32.3556L10.9778 28.3111L11.4765 28.3467L12.0543 20.2578L11.5556 20.2222L11.8444 16.1778L12.3432 16.2134L12.921 8.12451L12.4222 8.08889Z" stroke="#FDDDB9" stroke-dasharray="8 4"/>
</svg>
